# AST/ASF file generated using VICON BodyLanguage
# -----------------------------------------------
:version 1.10
:name VICON
:units
  mass 1.0
  length 0.45
  angle deg
:documentation
   .ast/.asf automatically generated from VICON data using
   VICON BodyBuilder and BodyLanguage model FoxedUp or BRILLIANT.MOD
:root
   order TX TY TZ RX RY RZ
   axis XYZ
   position 0 0 0  
   orientation 0 0 0 
:bonedata
  begin
     id 1 
     name lhipjoint
     direction 0.602128 -0.715006 0.355257 
     length 2.21237 
     axis 0 0 0  XYZ
  end
  begin
     id 2 
     name lfemur
     direction 0.34202 -0.939693 0  
     length 6.71649  
     axis 0 0 20  XYZ
    dof rx ry rz
    limits (-160.0 20.0)
           (-70.0 70.0)
           (-60.0 70.0)
  end
  begin
     id 3 
     name ltibia
     direction 0.34202 -0.939693 0   
     length 6.97123   
     axis 0 0 20   XYZ
    dof rx
    limits (-10.0 170.0)
  end
  begin
     id 4 
     name lfoot
     direction 0.0655697 -0.180151 0.981451   
     length 1.80924   
     axis -90 7.62852e-016 20   XYZ
    dof rx rz
    limits (-45.0 90.0)
           (-70.0 20.0)
  end
  begin
     id 5 
     name ltoes
     direction 1.53545e-011 -4.21827e-011 1   
     length 0.916331   
     axis -90 7.62852e-016 20   XYZ
    dof rx
    limits (-90.0 20.0)
  end
  begin
     id 6 
     name rhipjoint
     direction -0.625414 -0.698792 0.347201   
     length 2.2637  
     axis 0 0 0  XYZ 
  end
  begin
     id 7 
     name rfemur
     direction -0.34202 -0.939693 0   
     length 7.07595   
     axis 0 0 -20   XYZ
    dof rx ry rz
    limits (-160.0 20.0)
           (-70.0 70.0)
           (-70.0 60.0)
  end
  begin
     id 8 
     name rtibia
     direction -0.34202 -0.939693 0   
     length 7.22924   
     axis 0 0 -20   XYZ
    dof rx
    limits (-10.0 170.0)
 end
 begin
     id 9 
     name rfoot
     direction -0.0766747 -0.210662 0.974547   
     length 1.98482  
     axis -90 -7.62852e-016 -20   XYZ
    dof rx rz
    limits (-45.0 90.0)
           (-20.0 70.0)
  end
  begin
     id 10 
     name rtoes
     direction -1.53532e-011 -4.21867e-011 1   
     length 0.999842   
     axis -90 -7.62852e-016 -20   XYZ
    dof rx
    limits (-90.0 20.0)
  end
  begin
     id 11 
     name lowerback
     direction -0.0224668 0.997354 -0.0691422   
     length 2.09945   
     axis 0 0 0   XYZ
    dof rx ry rz
    limits (-20.0 45.0)
           (-30.0 30.0)
           (-30.0 30.0)
  end
  begin
     id 12 
     name upperback
     direction 0.0134698 0.998451 -0.0539888   
     length 2.09758   
     axis 0 0 0   XYZ
    dof rx ry rz
    limits (-20.0 45.0)
           (-30.0 30.0)
           (-30.0 30.0)
  end
  begin
     id 13 
     name thorax
     direction 0.0241905 0.99948 -0.0213333   
     length 2.10428   
     axis 0 0 0   XYZ
    dof rx ry rz
    limits (-20.0 45.0)
           (-30.0 30.0)
           (-30.0 30.0)
  end
  begin
     id 14 
     name lowerneck
     direction -0.00866847 0.995978 0.0891737   
     length 1.3959   
     axis 0 0 0   XYZ
    dof rx ry rz
    limits (-20.0 45.0)
           (-30.0 30.0)
           (-30.0 30.0)
  end
  begin
     id 15 
     name upperneck
     direction 0.0680679 0.992203 0.104404   
     length 1.39452   
     axis 0 0 0   XYZ
    dof rx ry rz
    limits (-20.0 45.0)
           (-30.0 30.0)
           (-30.0 30.0)
  end
  begin
     id 16
     name head
     direction 0.0242216 0.999358 0.0264054  
     length 1.40433  
     axis 0 0 0   XYZ
    dof rx ry rz
    limits (-20.0 45.0)
           (-30.0 30.0)
           (-30.0 30.0)
  end
  begin
     id 17 
     name lclavicle
     direction 0.929368 0.362991 -0.0671771  
     length 3.04887  
     axis 0 0 0   XYZ
    dof ry rz
    limits (-20.0 10.0)
           (0.0 20.0)
  end
  begin
     id 18 
     name lhumerus
     direction 1 -4.48967e-011 -7.13741e-028   
     length 4.77195   
     axis -180 -30 -90   XYZ
    dof rx ry rz
    limits (-60.0 90.0)
           (-90.0 90.0)
           (-90.0 90.0)
  end
  begin
     id 19
     name lradius
     direction 1 -4.48977e-011 3.60404e-027   
     length 2.98444   
     axis -180 -30 -90   XYZ
    dof rx
    limits (-10.0 170.0)
  end
  begin
     id 20
     name lwrist
     direction 1 -4.48997e-011 7.54877e-027   
     length 1.49222   
     axis -7.18178e-015 90 90   XYZ
    dof ry
    limits (-180.0 0.0)
 end
  begin
     id 21 
     name lhand
     direction 1 -4.489e-011 1.51105e-026   
     length 0.992285   
     axis -9.63605e-015 90 90   XYZ
    dof rx rz
    limits (-90.0 90.0)
           (-45.0 45.0)
  end
  begin
     id 22 
     name lfingers
     direction 1 -4.48998e-011 3.01948e-026   
     length 0.800006   
     axis -1.92718e-014 90 90   XYZ
    dof rx
    limits (0.0 90.0)
  end
  begin
     id 23
     name lthumb
     direction 0.707107 -6.34881e-011 0.707107   
     length 1.14865   
     axis -90 45 -3.53137e-014   XYZ
    dof rx rz
    limits (-45.0 45.0)
           (-45.0 45.0)
  end
  begin
     id 24 
     name rclavicle
     direction -0.945672 0.324529 0.0196374   
     length 3.4236  
     axis 0 0 0   XYZ 
    dof ry rz
    limits (-10.0 20.0)
           (-20.0 0.0)
  end
  begin
     id 25 
     name rhumerus
     direction -1 -4.4896e-011 1.02757e-029  
     length 4.62052   
     axis -180 30 90   XYZ
    dof rx ry rz
    limits (-90.0 60.0)
           (-90.0 90.0)
           (-90.0 90.0)
  end
  begin
     id 26 
     name rradius
     direction -1 -4.48982e-011 3.85962e-027   
     length 2.95332   
     axis -180 30 90   XYZ
    dof rx
    limits (-10.0 170.0)
  end
  begin
     id 27 
     name rwrist
     direction -1 -4.48961e-011 7.55118e-027   
     length 1.47666   
     axis -7.18178e-015 -90 -90   XYZ
    dof ry
    limits (-180.0 0.0)
  end
  begin
     id 28
     name rhand
     direction -1 -4.48984e-011 1.50994e-026   
     length 0.990956   
     axis -9.63605e-015 -90 -90   XYZ
    dof rx rz
    limits (-90.0 90.0)
           (-45.0 45.0)
  end
  begin
     id 29
     name rfingers
     direction -1 -4.4892e-011 3.02158e-026   
     length 0.798934   
     axis -1.92718e-014 -90 -90   XYZ
    dof rx
    limits (0.0 90.0)
  end
  begin
     id 30
     name rthumb
     direction -0.707107 -6.34916e-011 0.707107   
     length 1.14711   
     axis -90 -45 3.53137e-014   XYZ
    dof rx rz
    limits (-45.0 45.0)
           (-45.0 45.0)
  end
:hierarchy
  begin
    root lhipjoint rhipjoint lowerback
    lhipjoint lfemur
    lfemur ltibia
    ltibia lfoot
    lfoot ltoes
    rhipjoint rfemur
    rfemur rtibia
    rtibia rfoot
    rfoot rtoes
    lowerback upperback
    upperback thorax
    thorax lowerneck lclavicle rclavicle
    lowerneck upperneck
    upperneck head
    lclavicle lhumerus
    lhumerus lradius
    lradius lwrist
    lwrist lhand lthumb
    lhand lfingers
    rclavicle rhumerus
    rhumerus rradius
    rradius rwrist
    rwrist rhand rthumb
    rhand rfingers
  end

#!OML:ASF H:\ManfredObstacles\Project 1\Capture day 1\Session 1\Male.ASF
:FULLY-SPECIFIED
:DEGREES
67
root 12.0013 16.1285 30.3049 -170.316 -5.68154 -179.713
lowerback -7.83683 -0.67354 -2.71758
upperback 2.81564 -0.630134 0.109718
thorax 7.39783 -0.445033 1.55395
lowerneck 0.737942 -1.62216 -5.00393
upperneck 0.529289 -2.35509 8.67706
head 0.215872 -1.23726 3.6945
rclavicle 3.27995e-015 -4.17448e-015
rhumerus -34.3288 -23.4262 -75.589
rradius 26.0545
rwrist 31.7641
rhand -0.581222 -5.98584
rfingers 7.12502
rthumb 25.0335 -34.3654
lclavicle 3.27995e-015 -4.17448e-015
lhumerus -27.6276 12.5352 84.03
lradius 22.1517
lwrist -27.1646
lhand -9.46996 7.24038
lfingers 7.12502
lthumb 16.494 36.5593
rfemur -13.4044 -4.55653 24.3524
rtibia 25.7849
rfoot -26.8553 12.2403
rtoes 15.3449
lfemur -34.9486 -5.72092 -16.9584
ltibia 41.7878
lfoot -8.04468 3.19976
ltoes 7.76264
68
root 11.9996 16.1281 30.1623 -170.201 -5.51914 -179.641
lowerback -7.76147 -0.516121 -2.44126
upperback 2.69446 -0.445436 0.0309512
thorax 7.21162 -0.335512 1.34287
lowerneck 1.13773 -1.58702 -4.96009
upperneck 0.202975 -2.30255 8.72765
head 0.0369274 -1.22443 3.71038
rclavicle 2.5196e-014 -7.55382e-015
rhumerus -34.1583 -22.6697 -76.106
rradius 26.4829
rwrist 30.9447
rhand -0.467614 -6.01378
rfingers 7.12502
rthumb 25.1424 -34.3781
lclavicle 2.5196e-014 -7.55382e-015
lhumerus -28.0441 12.9517 83.5788
lradius 22.0373
lwrist -27.4326
lhand -9.36653 7.22501
lfingers 7.12502
lthumb 16.5936 36.5356
rfemur -12.5778 -4.78695 24.4534
rtibia 24.9899
rfoot -26.8866 12.4012
rtoes 13.9627
lfemur -35.3424 -5.7763 -16.7874
ltibia 38.0738
lfoot -7.09562 1.76767
ltoes 6.86912
69
root 11.9941 16.1271 30.0132 -170.137 -5.24723 -179.54
lowerback -7.81601 -0.356939 -2.17147
upperback 2.69092 -0.256183 -0.015871
thorax 7.22866 -0.22926 1.16816
lowerneck 1.10542 -1.50496 -4.90583
upperneck 0.0647288 -2.17942 8.66142
head -0.0122548 -1.16266 3.67729
rclavicle -1.04859e-014 -5.96354e-015
rhumerus -33.8415 -21.8531 -76.6403
rradius 26.9934
rwrist 30.016
rhand -0.251278 -6.0872
rfingers 7.12502
rthumb 25.3497 -34.4223
lclavicle -1.04859e-014 -5.96354e-015
lhumerus -28.3215 13.6411 83.1029
lradius 21.8326
lwrist -27.8381
lhand -9.48523 7.12439
lfingers 7.12502
lthumb 16.4793 36.4445
rfemur -11.6875 -5.03305 24.5404
rtibia 24.159
rfoot -26.963 12.704
rtoes 13.3255
lfemur -35.5522 -5.61486 -16.6946
ltibia 34.4261
lfoot -5.54101 0.329576
ltoes 7.30302
70
root 11.9908 16.1277 29.8697 -169.974 -4.95041 -179.275
lowerback -7.95264 -0.212777 -1.89534
upperback 2.64479 -0.0932316 0.0624931
thorax 7.25103 -0.137644 1.11808
lowerneck 1.10409 -1.48237 -5.07036
upperneck 0.214819 -2.1585 8.69529
head 0.0366132 -1.14982 3.72042
rclavicle 7.20594e-015 -6.16232e-015
rhumerus -33.6247 -21.0377 -77.0026
rradius 27.5736
rwrist 29.0953
rhand 0.0333132 -5.99865
rfingers 7.12502
rthumb 25.6223 -34.2948
lclavicle 7.20594e-015 -6.16232e-015
lhumerus -28.6601 14.4265 82.6805
lradius 21.6054
lwrist -28.2305
lhand -9.61028 7.18451
lfingers 7.12502
lthumb 16.3589 36.5146
rfemur -10.9161 -4.9265 24.7774
rtibia 23.2524
rfoot -27.0043 12.8768
rtoes 13.3726
lfemur -35.8284 -5.28631 -16.4432
ltibia 30.9088
lfoot -3.74109 -1.17839
ltoes 7.92626
71
root 11.989 16.1233 29.7342 -169.787 -4.73482 -178.681
lowerback -7.84633 -0.0435217 -1.2995
upperback 2.42619 0.0609922 0.193673
thorax 6.95069 -0.0331583 0.942033
lowerneck 1.28674 -1.45877 -5.06932
upperneck 0.298266 -2.14231 8.75494
head 0.0302991 -1.14664 3.7428
rclavicle -5.46658e-015 5.56597e-015
rhumerus -33.6082 -20.6968 -77.1864
rradius 27.9539
rwrist 28.6858
rhand 0.262683 -5.95576
rfingers 7.12502
rthumb 25.842 -34.2201
lclavicle -5.46658e-015 5.56597e-015
lhumerus -29.0933 15.0889 82.1231
lradius 21.1366
lwrist -28.6271
lhand -9.48764 7.29115
lfingers 7.12502
lthumb 16.477 36.6115
rfemur -10.2238 -4.55457 25.4091
rtibia 22.3123
rfoot -26.9597 12.6575
rtoes 12.5254
lfemur -36.1984 -4.83717 -15.8718
ltibia 27.6279
lfoot -1.18935 -2.22048
ltoes 11.1763
